<svg width="89" height="89" viewBox="0 0 89 89" fill="none" xmlns="http://www.w3.org/2000/svg">
<circle cx="50.5683" cy="86.9773" r="2.02273" fill="#FFD138" fill-opacity="0.5"/>
<circle cx="50.5683" cy="38.4317" r="2.02273" fill="#FFD138" fill-opacity="0.5"/>
<circle cx="2.02273" cy="86.9773" r="2.02273" fill="#FFD138" fill-opacity="0.5"/>
<circle cx="2.02273" cy="38.4317" r="2.02273" fill="#FFD138" fill-opacity="0.5"/>
<circle cx="50.5683" cy="62.7045" r="2.02273" fill="#FFD138" fill-opacity="0.5"/>
<circle cx="50.5683" cy="14.1591" r="2.02273" fill="#FFD138" fill-opacity="0.5"/>
<circle cx="2.02273" cy="62.7045" r="2.02273" fill="#FFD138" fill-opacity="0.5"/>
<circle cx="2.02273" cy="14.1591" r="2.02273" fill="#FFD138" fill-opacity="0.5"/>
<circle cx="50.5683" cy="50.5681" r="2.02273" fill="#FFD138" fill-opacity="0.5"/>
<circle cx="50.5683" cy="2.02273" r="2.02273" fill="#FFD138" fill-opacity="0.5"/>
<circle cx="2.02273" cy="50.5681" r="2.02273" fill="#FFD138" fill-opacity="0.5"/>
<circle cx="2.02273" cy="2.02273" r="2.02273" fill="#FFD138" fill-opacity="0.5"/>
<circle cx="50.5683" cy="74.841" r="2.02273" fill="#FFD138" fill-opacity="0.5"/>
<circle cx="50.5683" cy="26.2953" r="2.02273" fill="#FFD138" fill-opacity="0.5"/>
<circle cx="2.02273" cy="74.841" r="2.02273" fill="#FFD138" fill-opacity="0.5"/>
<circle cx="2.02273" cy="26.2953" r="2.02273" fill="#FFD138" fill-opacity="0.5"/>
<circle cx="62.7046" cy="86.9773" r="2.02273" fill="#FFD138" fill-opacity="0.5"/>
<circle cx="62.7046" cy="38.4317" r="2.02273" fill="#FFD138" fill-opacity="0.5"/>
<circle cx="14.1591" cy="86.9773" r="2.02273" fill="#FFD138" fill-opacity="0.5"/>
<circle cx="14.1591" cy="38.4317" r="2.02273" fill="#FFD138" fill-opacity="0.5"/>
<circle cx="62.7046" cy="62.7045" r="2.02273" fill="#FFD138" fill-opacity="0.5"/>
<circle cx="62.7046" cy="14.1591" r="2.02273" fill="#FFD138" fill-opacity="0.5"/>
<circle cx="14.1591" cy="62.7045" r="2.02273" fill="#FFD138" fill-opacity="0.5"/>
<circle cx="14.1591" cy="14.1591" r="2.02273" fill="#FFD138" fill-opacity="0.5"/>
<circle cx="62.7046" cy="50.5681" r="2.02273" fill="#FFD138" fill-opacity="0.5"/>
<circle cx="62.7046" cy="2.02273" r="2.02273" fill="#FFD138" fill-opacity="0.5"/>
<circle cx="14.1591" cy="50.5681" r="2.02273" fill="#FFD138" fill-opacity="0.5"/>
<circle cx="14.1591" cy="2.02273" r="2.02273" fill="#FFD138" fill-opacity="0.5"/>
<circle cx="62.7046" cy="74.841" r="2.02273" fill="#FFD138" fill-opacity="0.5"/>
<circle cx="62.7046" cy="26.2953" r="2.02273" fill="#FFD138" fill-opacity="0.5"/>
<circle cx="14.1591" cy="74.841" r="2.02273" fill="#FFD138" fill-opacity="0.5"/>
<circle cx="14.1591" cy="26.2953" r="2.02273" fill="#FFD138" fill-opacity="0.5"/>
<circle cx="74.8409" cy="86.9773" r="2.02273" fill="#FFD138" fill-opacity="0.5"/>
<circle cx="74.8409" cy="38.4317" r="2.02273" fill="#FFD138" fill-opacity="0.5"/>
<circle cx="26.2954" cy="86.9773" r="2.02273" fill="#FFD138" fill-opacity="0.5"/>
<circle cx="26.2954" cy="38.4317" r="2.02273" fill="#FFD138" fill-opacity="0.5"/>
<circle cx="74.8409" cy="62.7045" r="2.02273" fill="#FFD138" fill-opacity="0.5"/>
<circle cx="74.8409" cy="14.1591" r="2.02273" fill="#FFD138" fill-opacity="0.5"/>
<circle cx="26.2954" cy="62.7045" r="2.02273" fill="#FFD138" fill-opacity="0.5"/>
<circle cx="26.2954" cy="14.1591" r="2.02273" fill="#FFD138" fill-opacity="0.5"/>
<circle cx="74.8409" cy="50.5681" r="2.02273" fill="#FFD138" fill-opacity="0.5"/>
<circle cx="74.8409" cy="2.02273" r="2.02273" fill="#FFD138" fill-opacity="0.5"/>
<circle cx="26.2954" cy="50.5681" r="2.02273" fill="#FFD138" fill-opacity="0.5"/>
<circle cx="26.2954" cy="2.02273" r="2.02273" fill="#FFD138" fill-opacity="0.5"/>
<circle cx="74.8409" cy="74.841" r="2.02273" fill="#FFD138" fill-opacity="0.5"/>
<circle cx="74.8409" cy="26.2953" r="2.02273" fill="#FFD138" fill-opacity="0.5"/>
<circle cx="26.2954" cy="74.841" r="2.02273" fill="#FFD138" fill-opacity="0.5"/>
<circle cx="26.2954" cy="26.2953" r="2.02273" fill="#FFD138" fill-opacity="0.5"/>
<circle cx="86.9772" cy="86.9773" r="2.02273" fill="#FFD138" fill-opacity="0.5"/>
<circle cx="86.9772" cy="38.4317" r="2.02273" fill="#FFD138" fill-opacity="0.5"/>
<circle cx="38.4318" cy="86.9773" r="2.02273" fill="#FFD138" fill-opacity="0.5"/>
<circle cx="38.4318" cy="38.4317" r="2.02273" fill="#FFD138" fill-opacity="0.5"/>
<circle cx="86.9772" cy="62.7045" r="2.02273" fill="#FFD138" fill-opacity="0.5"/>
<circle cx="86.9772" cy="14.1591" r="2.02273" fill="#FFD138" fill-opacity="0.5"/>
<circle cx="38.4318" cy="62.7045" r="2.02273" fill="#FFD138" fill-opacity="0.5"/>
<circle cx="38.4318" cy="14.1591" r="2.02273" fill="#FFD138" fill-opacity="0.5"/>
<circle cx="86.9772" cy="50.5681" r="2.02273" fill="#FFD138" fill-opacity="0.5"/>
<circle cx="86.9772" cy="2.02273" r="2.02273" fill="#FFD138" fill-opacity="0.5"/>
<circle cx="38.4318" cy="50.5681" r="2.02273" fill="#FFD138" fill-opacity="0.5"/>
<circle cx="38.4318" cy="2.02273" r="2.02273" fill="#FFD138" fill-opacity="0.5"/>
<circle cx="86.9772" cy="74.841" r="2.02273" fill="#FFD138" fill-opacity="0.5"/>
<circle cx="86.9772" cy="26.2953" r="2.02273" fill="#FFD138" fill-opacity="0.5"/>
<circle cx="38.4318" cy="74.841" r="2.02273" fill="#FFD138" fill-opacity="0.5"/>
<circle cx="38.4318" cy="26.2953" r="2.02273" fill="#FFD138" fill-opacity="0.5"/>
</svg>
