<svg width="162" height="185" viewBox="0 0 162 185" fill="none" xmlns="http://www.w3.org/2000/svg">
<circle cx="105.114" cy="180.795" r="4.20455" fill="white" fill-opacity="0.25"/>
<circle cx="105.114" cy="79.8864" r="4.20455" fill="white" fill-opacity="0.25"/>
<circle cx="4.20455" cy="180.795" r="4.20455" fill="white" fill-opacity="0.25"/>
<circle cx="4.20455" cy="79.8864" r="4.20455" fill="white" fill-opacity="0.25"/>
<circle cx="105.114" cy="130.341" r="4.20455" fill="white" fill-opacity="0.25"/>
<circle cx="105.114" cy="29.4318" r="4.20455" fill="white" fill-opacity="0.25"/>
<circle cx="4.20455" cy="130.341" r="4.20455" fill="white" fill-opacity="0.25"/>
<circle cx="4.20455" cy="29.4318" r="4.20455" fill="white" fill-opacity="0.25"/>
<circle cx="105.114" cy="105.114" r="4.20455" fill="white" fill-opacity="0.25"/>
<circle cx="105.114" cy="4.20455" r="4.20455" fill="white" fill-opacity="0.25"/>
<circle cx="4.20455" cy="105.114" r="4.20455" fill="white" fill-opacity="0.25"/>
<circle cx="4.20455" cy="4.20455" r="4.20455" fill="white" fill-opacity="0.25"/>
<circle cx="105.114" cy="155.568" r="4.20455" fill="white" fill-opacity="0.25"/>
<circle cx="105.114" cy="54.6591" r="4.20455" fill="white" fill-opacity="0.25"/>
<circle cx="4.20455" cy="155.568" r="4.20455" fill="white" fill-opacity="0.25"/>
<circle cx="4.20455" cy="54.6591" r="4.20455" fill="white" fill-opacity="0.25"/>
<circle cx="130.341" cy="180.795" r="4.20455" fill="white" fill-opacity="0.25"/>
<circle cx="130.341" cy="79.8864" r="4.20455" fill="white" fill-opacity="0.25"/>
<circle cx="29.4318" cy="180.795" r="4.20455" fill="white" fill-opacity="0.25"/>
<circle cx="29.4318" cy="79.8864" r="4.20455" fill="white" fill-opacity="0.25"/>
<circle cx="130.341" cy="130.341" r="4.20455" fill="white" fill-opacity="0.25"/>
<circle cx="130.341" cy="29.4318" r="4.20455" fill="white" fill-opacity="0.25"/>
<circle cx="29.4318" cy="130.341" r="4.20455" fill="white" fill-opacity="0.25"/>
<circle cx="29.4318" cy="29.4318" r="4.20455" fill="white" fill-opacity="0.25"/>
<circle cx="130.341" cy="105.114" r="4.20455" fill="white" fill-opacity="0.25"/>
<circle cx="130.341" cy="4.20455" r="4.20455" fill="white" fill-opacity="0.25"/>
<circle cx="29.4318" cy="105.114" r="4.20455" fill="white" fill-opacity="0.25"/>
<circle cx="29.4318" cy="4.20455" r="4.20455" fill="white" fill-opacity="0.25"/>
<circle cx="130.341" cy="155.568" r="4.20455" fill="white" fill-opacity="0.25"/>
<circle cx="130.341" cy="54.6591" r="4.20455" fill="white" fill-opacity="0.25"/>
<circle cx="29.4318" cy="155.568" r="4.20455" fill="white" fill-opacity="0.25"/>
<circle cx="29.4318" cy="54.6591" r="4.20455" fill="white" fill-opacity="0.25"/>
<circle cx="155.568" cy="180.795" r="4.20455" fill="white" fill-opacity="0.25"/>
<circle cx="155.568" cy="79.8864" r="4.20455" fill="white" fill-opacity="0.25"/>
<circle cx="54.6591" cy="180.795" r="4.20455" fill="white" fill-opacity="0.25"/>
<circle cx="54.6591" cy="79.8864" r="4.20455" fill="white" fill-opacity="0.25"/>
<circle cx="155.568" cy="130.341" r="4.20455" fill="white" fill-opacity="0.25"/>
<circle cx="155.568" cy="29.4318" r="4.20455" fill="white" fill-opacity="0.25"/>
<circle cx="54.6591" cy="130.341" r="4.20455" fill="white" fill-opacity="0.25"/>
<circle cx="54.6591" cy="29.4318" r="4.20455" fill="white" fill-opacity="0.25"/>
<circle cx="155.568" cy="105.114" r="4.20455" fill="white" fill-opacity="0.25"/>
<circle cx="155.568" cy="4.20455" r="4.20455" fill="white" fill-opacity="0.25"/>
<circle cx="54.6591" cy="105.114" r="4.20455" fill="white" fill-opacity="0.25"/>
<circle cx="54.6591" cy="4.20455" r="4.20455" fill="white" fill-opacity="0.25"/>
<circle cx="155.568" cy="155.568" r="4.20455" fill="white" fill-opacity="0.25"/>
<circle cx="155.568" cy="54.6591" r="4.20455" fill="white" fill-opacity="0.25"/>
<circle cx="54.6591" cy="155.568" r="4.20455" fill="white" fill-opacity="0.25"/>
<circle cx="54.6591" cy="54.6591" r="4.20455" fill="white" fill-opacity="0.25"/>
<circle cx="79.8864" cy="180.795" r="4.20455" fill="white" fill-opacity="0.25"/>
<circle cx="79.8864" cy="79.8864" r="4.20455" fill="white" fill-opacity="0.25"/>
<circle cx="79.8864" cy="130.341" r="4.20455" fill="white" fill-opacity="0.25"/>
<circle cx="79.8864" cy="29.4318" r="4.20455" fill="white" fill-opacity="0.25"/>
<circle cx="79.8864" cy="105.114" r="4.20455" fill="white" fill-opacity="0.25"/>
<circle cx="79.8864" cy="4.20455" r="4.20455" fill="white" fill-opacity="0.25"/>
<circle cx="79.8864" cy="155.568" r="4.20455" fill="white" fill-opacity="0.25"/>
<circle cx="79.8864" cy="54.6591" r="4.20455" fill="white" fill-opacity="0.25"/>
</svg>
